<?xml version="1.0" standalone="no"?>
<!DOCTYPE svg PUBLIC "-//W3C//DTD SVG 20010904//EN"
 "http://www.w3.org/TR/2001/REC-SVG-20010904/DTD/svg10.dtd">
<svg version="1.0" xmlns="http://www.w3.org/2000/svg"
 width="700.000000pt" height="700.000000pt" viewBox="0 0 700.000000 700.000000"
 preserveAspectRatio="xMidYMid meet">
<metadata>
Created by potrace 1.14, written by Peter Selinger 2001-2017
</metadata>
<g transform="translate(0.000000,700.000000) scale(0.100000,-0.100000)"
fill="#000000" stroke="none">
<path d="M0 3500 l0 -3500 3500 0 3500 0 0 3500 0 3500 -3500 0 -3500 0 0
-3500z m3982 828 l3 -781 300 356 300 357 388 0 c297 0 386 -3 381 -12 -4 -6
-188 -219 -408 -473 -221 -253 -407 -468 -414 -477 -12 -15 48 -97 495 -685
280 -367 513 -674 517 -680 6 -10 -69 -13 -363 -13 l-369 0 -343 448 c-188
246 -344 449 -347 452 -2 3 -35 -29 -73 -70 l-69 -75 0 -377 0 -378 -325 0
-325 0 0 1595 0 1595 325 0 325 0 2 -782z m-1038 -34 l46 -7 0 -342 0 -342
-47 9 c-59 12 -200 3 -279 -17 -83 -21 -208 -85 -279 -142 -120 -97 -221 -259
-267 -428 -21 -76 -22 -103 -26 -593 l-3 -512 -325 0 -324 0 0 1170 0 1170
325 0 325 0 0 -277 c0 -160 4 -273 9 -267 5 5 14 27 21 49 36 113 138 275 221
350 58 52 152 111 218 136 108 41 268 59 385 43z"/>
</g>
</svg>
